<svg width="512" height="512" viewBox="0 0 512 512" fill="none" xmlns="http://www.w3.org/2000/svg">
<g clip-path="url(#clip0_1_2)">
<circle cx="256" cy="256" r="256" fill="#6353C5"/>
<path d="M125.665 355H68.1364L132.952 158.636H205.821L270.636 355H213.108L170.153 212.713H168.619L125.665 355ZM114.926 277.528H223.08V317.415H114.926V277.528ZM387.755 220C387.243 213.608 384.846 208.622 380.564 205.043C376.345 201.463 369.921 199.673 361.292 199.673C355.794 199.673 351.288 200.344 347.772 201.687C344.321 202.965 341.764 204.723 340.102 206.96C338.44 209.197 337.577 211.754 337.513 214.631C337.385 216.996 337.801 219.137 338.76 221.055C339.782 222.908 341.38 224.602 343.554 226.136C345.727 227.607 348.507 228.949 351.895 230.163C355.283 231.378 359.31 232.464 363.976 233.423L380.084 236.875C390.951 239.176 400.251 242.212 407.985 245.984C415.72 249.755 422.048 254.197 426.97 259.311C431.892 264.361 435.503 270.05 437.804 276.378C440.169 282.706 441.384 289.609 441.448 297.088C441.384 310 438.156 320.93 431.764 329.879C425.372 338.828 416.231 345.636 404.342 350.302C392.517 354.968 378.294 357.301 361.675 357.301C344.608 357.301 329.715 354.776 316.995 349.727C304.338 344.677 294.495 336.911 287.463 326.428C280.496 315.881 276.98 302.393 276.917 285.966H327.542C327.861 291.974 329.363 297.024 332.048 301.115C334.733 305.206 338.504 308.306 343.362 310.415C348.284 312.525 354.132 313.58 360.908 313.58C366.597 313.58 371.359 312.876 375.194 311.47C379.029 310.064 381.938 308.114 383.919 305.621C385.901 303.129 386.924 300.284 386.988 297.088C386.924 294.084 385.933 291.463 384.015 289.226C382.162 286.925 379.093 284.879 374.811 283.089C370.528 281.236 364.743 279.51 357.456 277.912L337.897 273.693C320.51 269.922 306.799 263.626 296.764 254.805C286.792 245.92 281.838 233.807 281.902 218.466C281.838 206.001 285.162 195.103 291.874 185.771C298.65 176.374 308.014 169.055 319.967 163.814C331.984 158.572 345.759 155.952 361.292 155.952C377.144 155.952 390.855 158.604 402.424 163.91C413.994 169.215 422.911 176.694 429.175 186.346C435.503 195.934 438.699 207.152 438.763 220H387.755Z" fill="white"/>
</g>
<defs>
<clipPath id="clip0_1_2">
<rect width="512" height="512" fill="white"/>
</clipPath>
</defs>
</svg>
